
<svg width="206" height="48" viewBox="0 0 206 48" fill="none" xmlns="http://www.w3.org/2000/svg">
<g clip-path="url(#clip0_369_18417)">
<mask id="mask0_369_18417" style="mask-type:luminance" maskUnits="userSpaceOnUse" x="-37" y="-175" width="281" height="398">
<path d="M243.146 -174.05H-36.9883V222.131H243.146V-174.05Z" fill="white"/>
</mask>
<g mask="url(#mask0_369_18417)">
<path fill-rule="evenodd" clip-rule="evenodd" d="M2.94426 42.595H1.57284V45.2572H0.766113V39.3278H1.57284V41.9093H2.94426L5.04174 39.3278H5.8888L3.54931 42.1916L6.05015 45.2572H5.12242L2.94426 42.595Z" fill="#F5F5F5"/>
</g>
<mask id="mask1_369_18417" style="mask-type:luminance" maskUnits="userSpaceOnUse" x="-37" y="-175" width="281" height="398">
<path d="M243.146 -174.05H-36.9883V222.131H243.146V-174.05Z" fill="white"/>
</mask>
<g mask="url(#mask1_369_18417)">
<path fill-rule="evenodd" clip-rule="evenodd" d="M10.1242 44.3698C10.4469 44.1681 10.6889 43.8454 10.8502 43.4824V42.5143H8.99477C7.98637 42.5143 7.462 42.8773 7.462 43.563C7.462 43.9261 7.583 44.1681 7.86536 44.3698C8.14771 44.5714 8.51074 44.6521 8.95443 44.6521C9.43847 44.6521 9.80149 44.5714 10.1242 44.3698ZM11.0116 39.8521C11.4149 40.2555 11.6166 40.8202 11.6166 41.5866V45.2572H10.8906V44.3294C10.7292 44.6521 10.4469 44.8941 10.0838 45.0555C9.72082 45.2168 9.31746 45.2975 8.83342 45.2975C8.18805 45.2975 7.66368 45.1361 7.26032 44.8135C6.85695 44.4908 6.65527 44.0874 6.65527 43.563C6.65527 43.079 6.85695 42.6353 7.21998 42.353C7.583 42.0303 8.14771 41.9093 8.95443 41.9093H10.8502V41.5462C10.8502 41.0219 10.6889 40.6588 10.4065 40.3765C10.1242 40.0941 9.72082 39.9731 9.15611 39.9731C8.79309 39.9731 8.43006 40.0538 8.06704 40.1748C7.70401 40.2958 7.42166 40.4572 7.17964 40.6992L6.85695 40.0538C7.13931 39.8118 7.50233 39.6101 7.94603 39.4488C8.34939 39.3277 8.79309 39.2471 9.27712 39.2471C10.0032 39.2874 10.6082 39.4488 11.0116 39.8521Z" fill="#F5F5F5"/>
</g>
<mask id="mask2_369_18417" style="mask-type:luminance" maskUnits="userSpaceOnUse" x="-37" y="-175" width="281" height="398">
<path d="M243.146 -174.05H-36.9883V222.131H243.146V-174.05Z" fill="white"/>
</mask>
<g mask="url(#mask2_369_18417)">
<path fill-rule="evenodd" clip-rule="evenodd" d="M13.7949 39.3278H14.5613V41.9496H18.3126V39.3278H19.1193V45.2572H18.3126V42.6353H14.5613V45.2572H13.7949V39.3278Z" fill="#F5F5F5"/>
</g>
<mask id="mask3_369_18417" style="mask-type:luminance" maskUnits="userSpaceOnUse" x="-37" y="-175" width="281" height="398">
<path d="M243.146 -174.05H-36.9883V222.131H243.146V-174.05Z" fill="white"/>
</mask>
<g mask="url(#mask3_369_18417)">
<path fill-rule="evenodd" clip-rule="evenodd" d="M27.5494 44.5311V46.7093H26.783V45.2572H21.3779V39.3278H22.1847V44.5311H25.7746V39.3278H26.5813V44.5311H27.5494Z" fill="#F5F5F5"/>
</g>
<mask id="mask4_369_18417" style="mask-type:luminance" maskUnits="userSpaceOnUse" x="-37" y="-175" width="281" height="398">
<path d="M243.146 -174.05H-36.9883V222.131H243.146V-174.05Z" fill="white"/>
</mask>
<g mask="url(#mask4_369_18417)">
<path fill-rule="evenodd" clip-rule="evenodd" d="M29.9697 40.4975C29.5663 40.8606 29.3646 41.3446 29.3243 41.9093H33.5193C33.4789 41.3043 33.2369 40.8606 32.8739 40.4975C32.4705 40.1345 31.9865 39.9328 31.4218 39.9328C30.8167 39.9732 30.3327 40.1345 29.9697 40.4975ZM34.2453 42.5144H29.284C29.3243 43.1194 29.5663 43.6438 30.01 44.0068C30.4537 44.3698 30.9781 44.5715 31.6235 44.5715C31.9865 44.5715 32.3092 44.4908 32.6319 44.3698C32.9546 44.2488 33.1966 44.0471 33.4386 43.8051L33.8823 44.3295C33.5999 44.6522 33.2772 44.8942 32.9142 45.0555C32.5109 45.2169 32.0672 45.2975 31.6235 45.2975C31.0184 45.2975 30.4941 45.1765 30.01 44.8942C29.526 44.6522 29.163 44.2891 28.9209 43.8051C28.6386 43.3614 28.5176 42.837 28.5176 42.232C28.5176 41.6673 28.6386 41.1429 28.8806 40.6589C29.1226 40.2152 29.4856 39.8522 29.9293 39.5698C30.373 39.3278 30.8571 39.2068 31.4218 39.2068C31.9865 39.2068 32.4705 39.3278 32.9142 39.5698C33.3579 39.8118 33.6806 40.1749 33.9226 40.6186C34.1646 41.0622 34.2856 41.5866 34.2856 42.1917L34.2453 42.5144Z" fill="#F5F5F5"/>
</g>
<mask id="mask5_369_18417" style="mask-type:luminance" maskUnits="userSpaceOnUse" x="-37" y="-175" width="281" height="398">
<path d="M243.146 -174.05H-36.9883V222.131H243.146V-174.05Z" fill="white"/>
</mask>
<g mask="url(#mask5_369_18417)">
<path fill-rule="evenodd" clip-rule="evenodd" d="M40.7395 39.3278V45.2572H39.9327V40.0135H37.1092L37.0285 41.4656C36.9882 42.716 36.8269 43.6437 36.5848 44.2891C36.3428 44.9345 35.9395 45.2975 35.3748 45.2975C35.2134 45.2975 35.0117 45.2572 34.8101 45.2168L34.8504 44.5311C34.9714 44.5715 35.0924 44.5715 35.1327 44.5715C35.4554 44.5715 35.6571 44.4101 35.8185 44.1278C35.9798 43.8454 36.1008 43.4824 36.1411 43.079C36.1815 42.6757 36.2218 42.111 36.2622 41.4252L36.3832 39.3278H40.7395Z" fill="#F5F5F5"/>
</g>
<mask id="mask6_369_18417" style="mask-type:luminance" maskUnits="userSpaceOnUse" x="-37" y="-175" width="281" height="398">
<path d="M243.146 -174.05H-36.9883V222.131H243.146V-174.05Z" fill="white"/>
</mask>
<g mask="url(#mask6_369_18417)">
<path fill-rule="evenodd" clip-rule="evenodd" d="M45.0555 42.6757H46.8303V40.0135H45.0959C43.9261 40.0135 43.3614 40.4572 43.3614 41.3446C43.3614 42.232 43.9261 42.6757 45.0555 42.6757ZM47.5967 39.3278V45.2572H46.8707V43.2807H45.0152H44.7732L43.4017 45.2572H42.5547L44.0471 43.2C43.6034 43.079 43.2404 42.837 42.9984 42.5546C42.7564 42.232 42.6354 41.8689 42.6354 41.3849C42.6354 40.7395 42.8774 40.2152 43.3211 39.8925C43.7648 39.5294 44.3698 39.3681 45.1765 39.3681H47.5967V39.3278Z" fill="#F5F5F5"/>
</g>
<mask id="mask7_369_18417" style="mask-type:luminance" maskUnits="userSpaceOnUse" x="-37" y="-175" width="281" height="398">
<path d="M243.146 -174.05H-36.9883V222.131H243.146V-174.05Z" fill="white"/>
</mask>
<g mask="url(#mask7_369_18417)">
<path fill-rule="evenodd" clip-rule="evenodd" d="M53.9696 44.289C54.2923 44.0874 54.5746 43.8453 54.7763 43.4823C54.978 43.1193 55.0586 42.7159 55.0586 42.2722C55.0586 41.8285 54.978 41.4252 54.7763 41.0621C54.5746 40.6991 54.3326 40.4571 53.9696 40.2554C53.6469 40.0537 53.2435 39.9731 52.8402 39.9731C52.4368 39.9731 52.0334 40.0537 51.7107 40.2554C51.388 40.4571 51.1057 40.7395 50.904 41.0621C50.7023 41.4252 50.6217 41.8285 50.6217 42.2722C50.6217 42.7159 50.7023 43.1193 50.904 43.4823C51.1057 43.8453 51.3477 44.0874 51.7107 44.289C52.0334 44.4907 52.4368 44.5714 52.8402 44.5714C53.2435 44.5714 53.6469 44.4907 53.9696 44.289ZM54.4133 39.6504C54.857 39.8924 55.22 40.2554 55.462 40.6991C55.704 41.1428 55.825 41.6672 55.825 42.2722C55.825 42.8773 55.704 43.4016 55.462 43.8453C55.22 44.289 54.857 44.6521 54.4133 44.8941C53.9696 45.1361 53.4452 45.2571 52.8805 45.2571C52.3965 45.2571 51.9528 45.1764 51.5897 44.9747C51.1864 44.7731 50.904 44.4907 50.6217 44.0874V47.3949H49.8149V39.3277H50.5813V40.4974C50.8233 40.0941 51.146 39.8117 51.5494 39.61C51.9528 39.4084 52.3965 39.2874 52.8805 39.2874C53.4452 39.2874 53.9696 39.4084 54.4133 39.6504Z" fill="#F5F5F5"/>
</g>
<mask id="mask8_369_18417" style="mask-type:luminance" maskUnits="userSpaceOnUse" x="-37" y="-175" width="281" height="398">
<path d="M243.146 -174.05H-36.9883V222.131H243.146V-174.05Z" fill="white"/>
</mask>
<g mask="url(#mask8_369_18417)">
<path fill-rule="evenodd" clip-rule="evenodd" d="M57.5596 39.3278H58.3663V44.0067L62.3192 39.3278H63.0453V45.2572H62.2386V40.5378L58.2856 45.2572H57.5596V39.3278Z" fill="#F5F5F5"/>
</g>
<mask id="mask9_369_18417" style="mask-type:luminance" maskUnits="userSpaceOnUse" x="-37" y="-175" width="281" height="398">
<path d="M243.146 -174.05H-36.9883V222.131H243.146V-174.05Z" fill="white"/>
</mask>
<g mask="url(#mask9_369_18417)">
<path fill-rule="evenodd" clip-rule="evenodd" d="M67.3615 42.6757H69.1363V40.0135H67.4018C66.2321 40.0135 65.6674 40.4572 65.6674 41.3446C65.6674 42.232 66.2321 42.6757 67.3615 42.6757ZM69.8623 39.3278V45.2572H69.1363V43.2807H67.2808H67.0388L65.6674 45.2572H64.8203L66.3127 43.2C65.8691 43.079 65.506 42.837 65.264 42.5546C65.022 42.232 64.901 41.8689 64.901 41.3849C64.901 40.7395 65.143 40.2152 65.5867 39.8925C66.0304 39.5294 66.6354 39.3681 67.4422 39.3681H69.8623V39.3278Z" fill="#F5F5F5"/>
</g>
<mask id="mask10_369_18417" style="mask-type:luminance" maskUnits="userSpaceOnUse" x="-37" y="-175" width="281" height="398">
<path d="M243.146 -174.05H-36.9883V222.131H243.146V-174.05Z" fill="white"/>
</mask>
<g mask="url(#mask10_369_18417)">
<path fill-rule="evenodd" clip-rule="evenodd" d="M76.0336 43.4016C75.9126 43.926 75.7512 44.3294 75.4689 44.5311H79.1798V40.0134H76.3159L76.2353 41.3445C76.1949 42.1916 76.1143 42.8773 76.0336 43.4016ZM80.8739 44.5311V46.6689H80.1075V45.2571H74.8235V46.6689H74.0571V44.5311H74.3798C74.7832 44.4907 75.0655 44.2084 75.1865 43.6437C75.3479 43.0789 75.4286 42.2722 75.4689 41.2638L75.5496 39.2874H79.9059V44.5311H80.8739Z" fill="#F5F5F5"/>
</g>
<mask id="mask11_369_18417" style="mask-type:luminance" maskUnits="userSpaceOnUse" x="-37" y="-175" width="281" height="398">
<path d="M243.146 -174.05H-36.9883V222.131H243.146V-174.05Z" fill="white"/>
</mask>
<g mask="url(#mask11_369_18417)">
<path fill-rule="evenodd" clip-rule="evenodd" d="M87.2873 39.3278V45.2572H86.4806V40.0135H83.6571L83.5764 41.4656C83.5361 42.716 83.3747 43.6437 83.1327 44.2891C82.8907 44.9345 82.4873 45.2975 81.9226 45.2975C81.7613 45.2975 81.5596 45.2572 81.3579 45.2168L81.3982 44.5311C81.5193 44.5715 81.6403 44.5715 81.6806 44.5715C82.0033 44.5715 82.205 44.4101 82.3663 44.1278C82.5277 43.8454 82.6487 43.4824 82.689 43.079C82.7293 42.6757 82.7697 42.111 82.81 41.4252L82.931 39.3278H87.2873Z" fill="#F5F5F5"/>
</g>
<mask id="mask12_369_18417" style="mask-type:luminance" maskUnits="userSpaceOnUse" x="-37" y="-175" width="281" height="398">
<path d="M243.146 -174.05H-36.9883V222.131H243.146V-174.05Z" fill="white"/>
</mask>
<g mask="url(#mask12_369_18417)">
<path fill-rule="evenodd" clip-rule="evenodd" d="M91.5628 42.6757H93.3376V40.0135H91.6032C90.4334 40.0135 89.8687 40.4572 89.8687 41.3446C89.9091 42.232 90.4334 42.6757 91.5628 42.6757ZM94.104 39.3278V45.2572H93.378V43.2807H91.5225H91.2805L89.9091 45.2572H89.062L90.5544 43.2C90.1107 43.079 89.7477 42.837 89.5057 42.5546C89.2637 42.232 89.1427 41.8689 89.1427 41.3849C89.1427 40.7395 89.3847 40.2152 89.8284 39.8925C90.2721 39.5294 90.8771 39.3681 91.6839 39.3681H94.104V39.3278Z" fill="#F5F5F5"/>
</g>
<mask id="mask13_369_18417" style="mask-type:luminance" maskUnits="userSpaceOnUse" x="-37" y="-175" width="281" height="398">
<path d="M243.146 -174.05H-36.9883V222.131H243.146V-174.05Z" fill="white"/>
</mask>
<g mask="url(#mask13_369_18417)">
<path fill-rule="evenodd" clip-rule="evenodd" d="M104.632 39.3278V45.2572H103.825V40.0135H100.114V45.2572H99.3076V39.3278H104.632Z" fill="#F5F5F5"/>
</g>
<mask id="mask14_369_18417" style="mask-type:luminance" maskUnits="userSpaceOnUse" x="-37" y="-175" width="281" height="398">
<path d="M243.146 -174.05H-36.9883V222.131H243.146V-174.05Z" fill="white"/>
</mask>
<g mask="url(#mask14_369_18417)">
<path fill-rule="evenodd" clip-rule="evenodd" d="M111.046 44.289C111.368 44.0874 111.651 43.8453 111.852 43.4823C112.054 43.1193 112.135 42.7159 112.135 42.2722C112.135 41.8285 112.054 41.4252 111.852 41.0621C111.651 40.6991 111.409 40.4571 111.046 40.2554C110.723 40.0537 110.319 39.9731 109.916 39.9731C109.513 39.9731 109.109 40.0537 108.787 40.2554C108.464 40.4571 108.182 40.7395 107.98 41.0621C107.778 41.4252 107.698 41.8285 107.698 42.2722C107.698 42.7159 107.778 43.1193 107.98 43.4823C108.182 43.8453 108.424 44.0874 108.787 44.289C109.109 44.4907 109.513 44.5714 109.916 44.5714C110.319 44.5714 110.683 44.4907 111.046 44.289ZM111.449 39.6504C111.893 39.8924 112.256 40.2554 112.498 40.6991C112.74 41.1428 112.861 41.6672 112.861 42.2722C112.861 42.8773 112.74 43.4016 112.498 43.8453C112.256 44.289 111.893 44.6521 111.449 44.8941C111.005 45.1361 110.481 45.2571 109.916 45.2571C109.432 45.2571 108.988 45.1764 108.625 44.9747C108.222 44.7731 107.94 44.4907 107.657 44.0874V47.3949H106.851V39.3277H107.617V40.4974C107.859 40.0941 108.182 39.8117 108.585 39.61C108.988 39.4084 109.432 39.2874 109.916 39.2874C110.521 39.2874 111.005 39.4084 111.449 39.6504Z" fill="#F5F5F5"/>
</g>
<mask id="mask15_369_18417" style="mask-type:luminance" maskUnits="userSpaceOnUse" x="-37" y="-175" width="281" height="398">
<path d="M243.146 -174.05H-36.9883V222.131H243.146V-174.05Z" fill="white"/>
</mask>
<g mask="url(#mask15_369_18417)">
<path fill-rule="evenodd" clip-rule="evenodd" d="M118.185 44.2891C118.508 44.0875 118.79 43.8454 118.951 43.4824C119.153 43.1194 119.234 42.716 119.234 42.2723C119.234 41.8286 119.153 41.4253 118.951 41.0623C118.75 40.6992 118.508 40.4572 118.185 40.2555C117.862 40.0538 117.459 39.9732 117.055 39.9732C116.652 39.9732 116.249 40.0538 115.926 40.2555C115.603 40.4572 115.321 40.6992 115.119 41.0623C114.918 41.4253 114.837 41.8286 114.837 42.2723C114.837 42.716 114.918 43.1194 115.119 43.4824C115.321 43.8454 115.563 44.0875 115.926 44.2891C116.249 44.4908 116.652 44.5715 117.055 44.5715C117.499 44.5715 117.862 44.4908 118.185 44.2891ZM115.523 44.8942C115.079 44.6522 114.716 44.2891 114.434 43.8051C114.151 43.3614 114.03 42.837 114.03 42.232C114.03 41.6673 114.151 41.1429 114.434 40.6589C114.716 40.2152 115.039 39.8522 115.523 39.5698C115.966 39.3278 116.491 39.2068 117.055 39.2068C117.62 39.2068 118.145 39.3278 118.588 39.5698C119.032 39.8118 119.395 40.1749 119.677 40.6589C119.919 41.1026 120.081 41.627 120.081 42.232C120.081 42.7967 119.96 43.3211 119.677 43.8051C119.435 44.2488 119.072 44.6118 118.588 44.8942C118.145 45.1362 117.62 45.2975 117.055 45.2975C116.491 45.2975 115.966 45.1765 115.523 44.8942Z" fill="#F5F5F5"/>
</g>
<mask id="mask16_369_18417" style="mask-type:luminance" maskUnits="userSpaceOnUse" x="-37" y="-175" width="281" height="398">
<path d="M243.146 -174.05H-36.9883V222.131H243.146V-174.05Z" fill="white"/>
</mask>
<g mask="url(#mask16_369_18417)">
<path fill-rule="evenodd" clip-rule="evenodd" d="M122.662 43.4016C122.541 43.926 122.38 44.3294 122.098 44.5311H125.808V40.0134H122.945L122.864 41.3445C122.864 42.1916 122.783 42.8773 122.662 43.4016ZM127.543 44.5311V46.6689H126.776V45.2571H121.492V46.6689H120.726V44.5311H121.049C121.452 44.4907 121.734 44.2084 121.855 43.6437C122.017 43.0789 122.098 42.2722 122.138 41.2638L122.219 39.2874H126.575V44.5311H127.543Z" fill="#F5F5F5"/>
</g>
<mask id="mask17_369_18417" style="mask-type:luminance" maskUnits="userSpaceOnUse" x="-37" y="-175" width="281" height="398">
<path d="M243.146 -174.05H-36.9883V222.131H243.146V-174.05Z" fill="white"/>
</mask>
<g mask="url(#mask17_369_18417)">
<path fill-rule="evenodd" clip-rule="evenodd" d="M134.118 39.3277L131.173 45.9428C130.931 46.5075 130.649 46.9109 130.326 47.1126C130.003 47.3546 129.64 47.4756 129.197 47.4756C128.914 47.4756 128.632 47.4353 128.39 47.3546C128.148 47.2739 127.946 47.1126 127.745 46.9512L128.108 46.3462C128.39 46.6285 128.753 46.7899 129.197 46.7899C129.479 46.7899 129.681 46.7092 129.882 46.5479C130.084 46.3865 130.245 46.1445 130.407 45.7815L130.649 45.2168L127.987 39.2874H128.834L131.093 44.3697L133.311 39.3277H134.118Z" fill="#F5F5F5"/>
</g>
<mask id="mask18_369_18417" style="mask-type:luminance" maskUnits="userSpaceOnUse" x="-37" y="-175" width="281" height="398">
<path d="M243.146 -174.05H-36.9883V222.131H243.146V-174.05Z" fill="white"/>
</mask>
<g mask="url(#mask18_369_18417)">
<path fill-rule="evenodd" clip-rule="evenodd" d="M137.506 42.595H136.175V45.2572H135.368V39.3278H136.175V41.9093H137.546L139.603 39.3278H140.491L138.151 42.1916L140.652 45.2572H139.684L137.506 42.595Z" fill="#F5F5F5"/>
</g>
<mask id="mask19_369_18417" style="mask-type:luminance" maskUnits="userSpaceOnUse" x="-37" y="-175" width="281" height="398">
<path d="M243.146 -174.05H-36.9883V222.131H243.146V-174.05Z" fill="white"/>
</mask>
<g mask="url(#mask19_369_18417)">
<path fill-rule="evenodd" clip-rule="evenodd" d="M145.936 40.0135H143.718V45.2572H142.911V40.0135H140.692V39.3278H145.936V40.0135Z" fill="#F5F5F5"/>
</g>
<mask id="mask20_369_18417" style="mask-type:luminance" maskUnits="userSpaceOnUse" x="-37" y="-175" width="281" height="398">
<path d="M243.146 -174.05H-36.9883V222.131H243.146V-174.05Z" fill="white"/>
</mask>
<g mask="url(#mask20_369_18417)">
<path fill-rule="evenodd" clip-rule="evenodd" d="M147.106 39.3278H147.913V44.0067L151.866 39.3278H152.592V45.2572H151.785V40.5378L147.832 45.2572H147.106V39.3278Z" fill="#F5F5F5"/>
</g>
<mask id="mask21_369_18417" style="mask-type:luminance" maskUnits="userSpaceOnUse" x="-37" y="-175" width="281" height="398">
<path d="M243.146 -174.05H-36.9883V222.131H243.146V-174.05Z" fill="white"/>
</mask>
<g mask="url(#mask21_369_18417)">
<path fill-rule="evenodd" clip-rule="evenodd" d="M158.682 44.3698C158.924 44.2084 159.045 43.9261 159.045 43.6034C159.045 43.2404 158.924 42.9983 158.682 42.837C158.44 42.6757 158.077 42.595 157.593 42.595H155.617V44.6521H157.512C158.037 44.6118 158.4 44.5311 158.682 44.3698ZM155.617 41.9496H157.391C157.835 41.9496 158.198 41.8689 158.44 41.7076C158.682 41.5462 158.803 41.2639 158.803 40.9412C158.803 40.6185 158.682 40.3765 158.44 40.2152C158.198 40.0538 157.835 39.9731 157.391 39.9731H155.617V41.9496ZM159.852 43.6437C159.852 44.1681 159.65 44.5715 159.287 44.8538C158.924 45.1362 158.319 45.2572 157.593 45.2572H154.891V39.3278H157.512C158.198 39.3278 158.723 39.4488 159.086 39.7311C159.449 40.0135 159.65 40.3765 159.65 40.8605C159.65 41.1832 159.57 41.4656 159.368 41.7076C159.207 41.9496 158.965 42.1109 158.642 42.232C159.449 42.353 159.852 42.837 159.852 43.6437Z" fill="#F5F5F5"/>
</g>
<mask id="mask22_369_18417" style="mask-type:luminance" maskUnits="userSpaceOnUse" x="-37" y="-175" width="281" height="398">
<path d="M243.146 -174.05H-36.9883V222.131H243.146V-174.05Z" fill="white"/>
</mask>
<g mask="url(#mask22_369_18417)">
<path fill-rule="evenodd" clip-rule="evenodd" d="M161.708 39.3278H162.514V41.9496H166.225V39.3278H167.032V45.2572H166.225V42.6353H162.514V45.2572H161.708V39.3278Z" fill="#F5F5F5"/>
</g>
<mask id="mask23_369_18417" style="mask-type:luminance" maskUnits="userSpaceOnUse" x="-37" y="-175" width="281" height="398">
<path d="M243.146 -174.05H-36.9883V222.131H243.146V-174.05Z" fill="white"/>
</mask>
<g mask="url(#mask23_369_18417)">
<path fill-rule="evenodd" clip-rule="evenodd" d="M172.881 44.2891C173.203 44.0875 173.486 43.8454 173.647 43.4824C173.849 43.1194 173.929 42.716 173.929 42.2723C173.929 41.8286 173.849 41.4253 173.647 41.0623C173.445 40.6992 173.203 40.4572 172.881 40.2555C172.558 40.0538 172.155 39.9732 171.751 39.9732C171.348 39.9732 170.945 40.0538 170.622 40.2555C170.299 40.4572 170.017 40.6992 169.815 41.0623C169.613 41.4253 169.533 41.8286 169.533 42.2723C169.533 42.716 169.613 43.1194 169.815 43.4824C170.017 43.8454 170.259 44.0875 170.622 44.2891C170.945 44.4908 171.348 44.5715 171.751 44.5715C172.155 44.5715 172.558 44.4908 172.881 44.2891ZM170.219 44.8942C169.775 44.6522 169.412 44.2891 169.129 43.8051C168.847 43.3614 168.726 42.837 168.726 42.232C168.726 41.6673 168.847 41.1429 169.129 40.6589C169.412 40.2152 169.734 39.8522 170.219 39.5698C170.662 39.3278 171.187 39.2068 171.751 39.2068C172.316 39.2068 172.84 39.3278 173.284 39.5698C173.728 39.8118 174.091 40.1749 174.373 40.6589C174.615 41.1026 174.776 41.627 174.776 42.232C174.776 42.7967 174.655 43.3211 174.373 43.8051C174.131 44.2488 173.768 44.6118 173.284 44.8942C172.84 45.1362 172.316 45.2975 171.751 45.2975C171.187 45.2975 170.662 45.1765 170.219 44.8942Z" fill="#F5F5F5"/>
</g>
<mask id="mask24_369_18417" style="mask-type:luminance" maskUnits="userSpaceOnUse" x="-37" y="-175" width="281" height="398">
<path d="M243.146 -174.05H-36.9883V222.131H243.146V-174.05Z" fill="white"/>
</mask>
<g mask="url(#mask24_369_18417)">
<path fill-rule="evenodd" clip-rule="evenodd" d="M177.358 44.8942C176.914 44.6522 176.551 44.2891 176.269 43.8051C175.987 43.3614 175.866 42.837 175.866 42.232C175.866 41.6673 175.987 41.1429 176.269 40.6589C176.551 40.2152 176.914 39.8522 177.358 39.5698C177.802 39.3278 178.326 39.2068 178.931 39.2068C179.456 39.2068 179.899 39.2875 180.303 39.4891C180.706 39.6908 181.029 39.9732 181.271 40.3765L180.666 40.7799C180.464 40.4975 180.222 40.2555 179.94 40.1345C179.657 39.9732 179.294 39.9328 178.972 39.9328C178.528 39.9328 178.165 40.0135 177.802 40.2152C177.479 40.4169 177.197 40.6589 176.995 41.0219C176.793 41.3849 176.713 41.7883 176.713 42.232C176.713 42.6757 176.793 43.0791 176.995 43.4421C177.197 43.8051 177.439 44.0471 177.802 44.2488C178.125 44.4505 178.528 44.5312 178.972 44.5312C179.335 44.5312 179.657 44.4505 179.94 44.3295C180.222 44.1681 180.504 43.9665 180.666 43.6841L181.271 44.0875C181.029 44.4505 180.706 44.7732 180.303 44.9749C179.899 45.1765 179.456 45.2572 178.931 45.2572C178.367 45.2975 177.842 45.1765 177.358 44.8942Z" fill="#F5F5F5"/>
</g>
<mask id="mask25_369_18417" style="mask-type:luminance" maskUnits="userSpaceOnUse" x="-37" y="-175" width="281" height="398">
<path d="M243.146 -174.05H-36.9883V222.131H243.146V-174.05Z" fill="white"/>
</mask>
<g mask="url(#mask25_369_18417)">
<path fill-rule="evenodd" clip-rule="evenodd" d="M186.877 40.0135H184.618V45.2572H183.812V40.0135H181.593V39.3278H186.877V40.0135Z" fill="#F5F5F5"/>
</g>
<mask id="mask26_369_18417" style="mask-type:luminance" maskUnits="userSpaceOnUse" x="-37" y="-175" width="281" height="398">
<path d="M243.146 -174.05H-36.9883V222.131H243.146V-174.05Z" fill="white"/>
</mask>
<g mask="url(#mask26_369_18417)">
<path fill-rule="evenodd" clip-rule="evenodd" d="M188.007 39.3278H188.814V44.0067L192.766 39.3278H193.493V45.2572H192.686V40.5378L188.733 45.2572H188.007V39.3278Z" fill="#F5F5F5"/>
</g>
<mask id="mask27_369_18417" style="mask-type:luminance" maskUnits="userSpaceOnUse" x="-37" y="-175" width="281" height="398">
<path d="M243.146 -174.05H-36.9883V222.131H243.146V-174.05Z" fill="white"/>
</mask>
<g mask="url(#mask27_369_18417)">
<path fill-rule="evenodd" clip-rule="evenodd" d="M2.46029 9.80164C3.42836 9.80164 4.19474 10.568 4.19474 11.5361V12.8672C4.92079 11.8184 5.88886 11.0521 7.17962 10.568C8.06701 10.2453 9.03508 10.0033 10.1242 9.88231C10.9712 9.80164 11.6973 10.447 11.6973 11.2537C11.6973 11.9798 11.1326 12.5848 10.4065 12.6655C9.11575 12.7865 8.02667 13.0689 7.01827 13.5126C5.72752 14.1176 4.79978 15.0453 4.31575 16.2958V25.6134C4.31575 26.6218 3.50903 27.3882 2.54096 27.3882C1.53256 27.3882 0.766171 26.5815 0.766171 25.6134V11.5361C0.725834 10.568 1.49222 9.80164 2.46029 9.80164Z" fill="#F5F5F5"/>
</g>
<mask id="mask28_369_18417" style="mask-type:luminance" maskUnits="userSpaceOnUse" x="-37" y="-175" width="281" height="398">
<path d="M243.146 -174.05H-36.9883V222.131H243.146V-174.05Z" fill="white"/>
</mask>
<g mask="url(#mask28_369_18417)">
<path fill-rule="evenodd" clip-rule="evenodd" d="M31.6637 17.2236C31.6234 15.6101 31.099 14.3597 30.0906 13.4723C29.0822 12.5849 27.6705 12.1412 25.815 12.1412C23.9999 12.1412 22.6284 12.5849 21.62 13.5126C20.6116 14.4404 20.0873 15.6505 20.0469 17.1832L31.6637 17.2236ZM19.3209 25.0084C17.5461 23.4353 16.6587 21.2168 16.6587 18.353C16.6587 15.5698 17.4654 13.3513 19.0385 11.7378C20.652 10.1244 22.9108 9.27734 25.8553 9.27734C27.8318 9.27734 29.4856 9.64037 30.857 10.4068C32.2284 11.1328 33.2772 12.1815 33.9629 13.5126C34.6486 14.8437 35.0116 16.3362 35.0116 17.9899C35.0116 18.958 34.2049 19.7647 33.2368 19.7647H20.0469C20.1679 21.3782 20.8536 22.5883 22.1041 23.3547C23.3545 24.1614 25.0486 24.5244 27.1461 24.5244C28.2352 24.5244 29.3242 24.4437 30.4536 24.242C30.8973 24.1614 31.3007 24.0807 31.7041 23.9597C32.5511 23.758 33.3982 24.4034 33.3982 25.2908C33.3982 25.8958 32.9948 26.4605 32.3898 26.6219C31.8251 26.7832 31.1394 26.9042 30.4133 27.0252C29.1629 27.2269 27.9528 27.3076 26.7427 27.3076C23.5965 27.3479 21.136 26.5815 19.3209 25.0084Z" fill="#F5F5F5"/>
</g>
<mask id="mask29_369_18417" style="mask-type:luminance" maskUnits="userSpaceOnUse" x="-37" y="-175" width="281" height="398">
<path d="M243.146 -174.05H-36.9883V222.131H243.146V-174.05Z" fill="white"/>
</mask>
<g mask="url(#mask29_369_18417)">
<path fill-rule="evenodd" clip-rule="evenodd" d="M44.1682 9.80164C45.096 9.80164 45.8624 10.568 45.8624 11.4958V12.2218C46.6691 11.2134 47.5565 10.4874 48.6052 10.0033C49.6136 9.51929 50.6624 9.27727 51.7514 9.27727C53.1229 9.27727 54.2119 9.51929 55.0187 9.96299C55.8254 10.4067 56.4304 11.1327 56.7935 12.0605C57.5598 11.1327 58.4876 10.447 59.5766 9.96299C60.6657 9.47896 61.7951 9.23694 62.8842 9.23694C64.9817 9.23694 66.4741 9.76131 67.4019 10.81C68.3296 11.8588 68.7733 13.4319 68.7733 15.489V25.6537C68.7733 26.6218 68.0069 27.3882 67.0388 27.3882C66.0708 27.3882 65.3044 26.6218 65.3044 25.6537V15.9731C65.3044 14.5613 65.0624 13.5932 64.538 13.0285C64.0136 12.4638 63.1262 12.1411 61.8758 12.1411C60.0607 12.1411 58.6086 12.9075 57.4792 14.4806C57.5195 14.8437 57.5598 15.4084 57.5598 16.2151V25.6537C57.5598 26.6218 56.7934 27.3882 55.8254 27.3882C54.8573 27.3882 54.0909 26.6218 54.0909 25.6537V15.9327C54.0909 14.521 53.8489 13.5529 53.3649 12.9882C52.8808 12.4235 52.0338 12.1008 50.8237 12.1008C49.0086 12.1008 47.4355 13.1092 45.9834 15.1663V25.6537C45.9834 26.6218 45.217 27.3882 44.2489 27.3882H44.2086C43.2405 27.3882 42.4741 26.6218 42.4741 25.6537V11.4958C42.4741 10.568 43.2405 9.80164 44.1682 9.80164Z" fill="#F5F5F5"/>
</g>
<mask id="mask30_369_18417" style="mask-type:luminance" maskUnits="userSpaceOnUse" x="-37" y="-175" width="281" height="398">
<path d="M243.146 -174.05H-36.9883V222.131H243.146V-174.05Z" fill="white"/>
</mask>
<g mask="url(#mask30_369_18417)">
<path fill-rule="evenodd" clip-rule="evenodd" d="M86.3191 23.9596C87.2468 23.5159 87.9325 22.8706 88.3762 22.0638V19.7647C86.8434 18.7563 85.109 18.2722 83.2535 18.2722C81.8821 18.2722 80.8737 18.5546 80.188 19.079C79.5023 19.6033 79.1796 20.41 79.1796 21.4991C79.1796 23.5966 80.551 24.605 83.2535 24.605C84.3426 24.6453 85.3913 24.4033 86.3191 23.9596ZM77.4048 25.7748C76.1544 24.726 75.5493 23.3142 75.5493 21.4991C75.5493 19.6033 76.1544 18.1512 77.3241 17.1025C78.5342 16.0941 80.2283 15.5697 82.4065 15.5697C84.746 15.5697 86.7224 16.0537 88.3762 16.9815V16.0941C88.3762 14.763 87.9728 13.7546 87.1661 13.1092C86.3594 12.4638 85.0686 12.1411 83.3342 12.1411C82.2855 12.1411 81.2771 12.2218 80.309 12.4235C79.9863 12.5042 79.7039 12.5445 79.4216 12.6252C78.5342 12.8672 77.6871 12.1815 77.6871 11.2941C77.6871 10.689 78.0905 10.1647 78.6552 9.96299C79.1796 9.80164 79.7846 9.6403 80.4703 9.51929C81.5997 9.31761 82.6888 9.23694 83.7779 9.23694C86.6014 9.23694 88.6586 9.84198 90.03 11.0924C91.4014 12.3428 92.0871 14.0369 92.0871 16.2554V25.6941C92.0871 26.6218 91.3208 27.3882 90.393 27.3882C89.4653 27.3882 88.6989 26.6218 88.6989 25.6941V24.8874C87.9728 25.6941 87.0855 26.2991 86.077 26.7025C85.0686 27.1058 83.8586 27.3075 82.4065 27.3075C80.2686 27.3479 78.6149 26.8235 77.4048 25.7748Z" fill="#F5F5F5"/>
</g>
<mask id="mask31_369_18417" style="mask-type:luminance" maskUnits="userSpaceOnUse" x="-37" y="-175" width="281" height="398">
<path d="M243.146 -174.05H-36.9883V222.131H243.146V-174.05Z" fill="white"/>
</mask>
<g mask="url(#mask31_369_18417)">
<path fill-rule="evenodd" clip-rule="evenodd" d="M101.688 9.80164C102.656 9.80164 103.422 10.568 103.422 11.5361V12.8672C104.148 11.8184 105.116 11.0521 106.407 10.568C107.294 10.2453 108.262 10.0033 109.351 9.88231C110.199 9.80164 110.925 10.447 110.925 11.2537C110.925 11.9798 110.36 12.5848 109.634 12.6655C108.343 12.7865 107.254 13.0689 106.246 13.5126C104.955 14.1176 104.027 15.0453 103.543 16.2958V25.8958C103.543 26.7428 102.857 27.4285 102.01 27.4285H101.486C100.639 27.4285 99.9531 26.7428 99.9531 25.8958V11.5361C99.9531 10.568 100.76 9.80164 101.688 9.80164Z" fill="#F5F5F5"/>
</g>
<mask id="mask32_369_18417" style="mask-type:luminance" maskUnits="userSpaceOnUse" x="-37" y="-175" width="281" height="398">
<path d="M243.146 -174.05H-36.9883V222.131H243.146V-174.05Z" fill="white"/>
</mask>
<g mask="url(#mask32_369_18417)">
<path fill-rule="evenodd" clip-rule="evenodd" d="M129.882 27.3479C129.479 27.3479 129.076 27.1866 128.793 26.9042L121.533 19.684C121.412 19.563 121.291 19.4017 121.21 19.2403V25.8555C121.21 26.7025 120.524 27.3882 119.677 27.3882H119.153C118.306 27.3882 117.62 26.7025 117.62 25.8555V2.42018C117.62 1.41177 118.427 0.645386 119.395 0.645386C120.363 0.645386 121.17 1.45211 121.17 2.42018V17.0622C121.25 16.9412 121.331 16.8202 121.452 16.6992L127.462 10.3261C127.744 10.0034 128.188 9.80169 128.632 9.80169C129.6 9.80169 130.205 10.5681 130.205 11.4151C130.205 11.7782 130.084 12.1815 129.761 12.5042L124.397 18.2319L130.971 24.7664C131.939 25.6941 131.294 27.3479 129.882 27.3479Z" fill="#F5F5F5"/>
</g>
<mask id="mask33_369_18417" style="mask-type:luminance" maskUnits="userSpaceOnUse" x="-37" y="-175" width="281" height="398">
<path d="M243.146 -174.05H-36.9883V222.131H243.146V-174.05Z" fill="white"/>
</mask>
<g mask="url(#mask33_369_18417)">
<path fill-rule="evenodd" clip-rule="evenodd" d="M140.813 0.60498C141.822 0.60498 142.588 1.4117 142.588 2.37977V25.6134C142.588 26.6218 141.781 27.3882 140.813 27.3882C139.805 27.3882 139.039 26.5815 139.039 25.6134V2.37977C139.039 1.4117 139.805 0.60498 140.813 0.60498Z" fill="#F5F5F5"/>
</g>
<mask id="mask34_369_18417" style="mask-type:luminance" maskUnits="userSpaceOnUse" x="-37" y="-175" width="281" height="398">
<path d="M243.146 -174.05H-36.9883V222.131H243.146V-174.05Z" fill="white"/>
</mask>
<g mask="url(#mask34_369_18417)">
<path fill-rule="evenodd" clip-rule="evenodd" d="M165.055 17.2236C165.015 15.6101 164.491 14.3597 163.482 13.4723C162.474 12.5849 161.062 12.1412 159.207 12.1412C157.391 12.1412 156.02 12.5849 155.012 13.5126C154.003 14.4404 153.479 15.6505 153.439 17.1832L165.055 17.2236ZM152.712 25.0084C150.938 23.4353 150.05 21.2168 150.05 18.353C150.05 15.5698 150.857 13.3513 152.43 11.7378C154.044 10.1244 156.302 9.27734 159.247 9.27734C161.223 9.27734 162.877 9.64037 164.249 10.4068C165.62 11.1328 166.669 12.1815 167.354 13.5126C168.04 14.8437 168.403 16.3362 168.403 17.9899C168.403 18.958 167.597 19.7647 166.628 19.7647H153.439C153.56 21.3782 154.245 22.5883 155.496 23.3547C156.746 24.1614 158.44 24.5244 160.538 24.5244C161.627 24.5244 162.716 24.4437 163.845 24.242C164.289 24.1614 164.692 24.0807 165.096 23.9597C165.943 23.758 166.79 24.4034 166.79 25.2908C166.79 25.8958 166.386 26.4605 165.781 26.6219C165.217 26.7832 164.531 26.9042 163.805 27.0252C162.554 27.2269 161.344 27.3076 160.134 27.3076C156.988 27.3479 154.528 26.5815 152.712 25.0084Z" fill="#F5F5F5"/>
</g>
<mask id="mask35_369_18417" style="mask-type:luminance" maskUnits="userSpaceOnUse" x="-37" y="-175" width="281" height="398">
<path d="M243.146 -174.05H-36.9883V222.131H243.146V-174.05Z" fill="white"/>
</mask>
<g mask="url(#mask35_369_18417)">
<path fill-rule="evenodd" clip-rule="evenodd" d="M190.144 17.2236C190.104 15.6101 189.58 14.3597 188.571 13.4723C187.563 12.5849 186.151 12.1412 184.296 12.1412C182.481 12.1412 181.109 12.5849 180.101 13.5126C179.092 14.4404 178.568 15.6505 178.528 17.1832L190.144 17.2236ZM177.842 25.0084C176.067 23.4353 175.18 21.2168 175.18 18.353C175.18 15.5698 175.986 13.3513 177.56 11.7378C179.173 10.1244 181.432 9.27734 184.376 9.27734C186.353 9.27734 188.007 9.64037 189.378 10.4068C190.749 11.1328 191.798 12.1815 192.484 13.5126C193.17 14.8437 193.533 16.3362 193.533 17.9899C193.533 18.958 192.726 19.7647 191.758 19.7647H178.568C178.689 21.3782 179.375 22.5883 180.625 23.3547C181.875 24.1614 183.57 24.5244 185.667 24.5244C186.756 24.5244 187.845 24.4437 188.975 24.242C189.418 24.1614 189.822 24.0807 190.225 23.9597C191.072 23.758 191.919 24.4034 191.919 25.2908C191.919 25.8958 191.516 26.4605 190.911 26.6219C190.346 26.7832 189.66 26.9042 188.934 27.0252C187.684 27.2269 186.474 27.3076 185.264 27.3076C182.077 27.3479 179.617 26.5815 177.842 25.0084Z" fill="#F5F5F5"/>
</g>
<mask id="mask36_369_18417" style="mask-type:luminance" maskUnits="userSpaceOnUse" x="-37" y="-175" width="281" height="398">
<path d="M243.146 -174.05H-36.9883V222.131H243.146V-174.05Z" fill="white"/>
</mask>
<g mask="url(#mask36_369_18417)">
<path fill-rule="evenodd" clip-rule="evenodd" d="M205.069 8.75288C204.908 8.9949 204.625 9.15624 204.343 9.15624C204.182 9.15624 204.02 9.1159 203.859 8.9949L201.479 7.42179V10.0033C201.479 10.4873 201.076 10.8907 200.592 10.8907C200.108 10.8907 199.704 10.4873 199.704 10.0033V7.42179L197.324 8.9949C197.163 9.07557 197.002 9.15624 196.84 9.15624C196.558 9.15624 196.276 9.03523 196.114 8.75288C195.832 8.34952 195.953 7.78481 196.356 7.5428L199.019 5.76801L196.356 3.99322C195.953 3.71086 195.832 3.18649 196.114 2.78313C196.397 2.37977 196.921 2.25876 197.324 2.54112L199.704 4.11422V1.49238C199.704 1.00834 200.108 0.60498 200.592 0.60498C201.076 0.60498 201.479 1.00834 201.479 1.49238V4.07389L203.859 2.50078C204.262 2.21843 204.827 2.33943 205.069 2.7428C205.351 3.14616 205.23 3.71086 204.827 3.95288L202.165 5.72767L204.827 7.50246C205.23 7.78481 205.311 8.34952 205.069 8.75288Z" fill="#F5F5F5"/>
</g>
</g>
<defs>
<clipPath id="clip0_369_18417">
<rect width="205.835" height="48" fill="white"/>
</clipPath>
</defs>
</svg>
