<svg width="103" height="24" viewBox="0 0 103 24" fill="none" xmlns="http://www.w3.org/2000/svg">
<g id="Group">
<g id="Group_2">
<g id="Group_3">
<g id="Group_4">
<g id="Clip path group">
<mask id="mask0_398_9641" style="mask-type:luminance" maskUnits="userSpaceOnUse" x="-19" y="-88" width="141" height="200">
<g id="SVGID_2_">
<path id="Vector" d="M121.573 -87.0251H-18.4941V111.066H121.573V-87.0251Z" fill="white"/>
</g>
</mask>
<g mask="url(#mask0_398_9641)">
<path id="Vector_2" fill-rule="evenodd" clip-rule="evenodd" d="M1.47238 21.2976H0.786662V22.6286H0.383301V19.6639H0.786662V20.9547H1.47238L2.52112 19.6639H2.94465L1.7749 21.0959L3.02532 22.6286H2.56145L1.47238 21.2976Z" fill="#010101"/>
</g>
</g>
<g id="Clip path group_2">
<mask id="mask1_398_9641" style="mask-type:luminance" maskUnits="userSpaceOnUse" x="-19" y="-88" width="141" height="200">
<g id="SVGID_2__2">
<path id="Vector_3" d="M121.573 -87.0251H-18.4941V111.066H121.573V-87.0251Z" fill="white"/>
</g>
</mask>
<g mask="url(#mask1_398_9641)">
<path id="Vector_4" fill-rule="evenodd" clip-rule="evenodd" d="M5.06209 22.1849C5.22344 22.084 5.34444 21.9227 5.42512 21.7412V21.2571H4.49738C3.99318 21.2571 3.731 21.4387 3.731 21.7815C3.731 21.963 3.7915 22.084 3.93268 22.1849C4.07386 22.2857 4.25537 22.3261 4.47722 22.3261C4.71923 22.3261 4.90075 22.2857 5.06209 22.1849ZM5.50579 19.9261C5.70747 20.1277 5.80831 20.4101 5.80831 20.7933V22.6286H5.44528V22.1647C5.36461 22.3261 5.22344 22.4471 5.04192 22.5277C4.86041 22.6084 4.65873 22.6487 4.41671 22.6487C4.09402 22.6487 3.83184 22.5681 3.63016 22.4067C3.42848 22.2454 3.32764 22.0437 3.32764 21.7815C3.32764 21.5395 3.42848 21.3177 3.60999 21.1765C3.7915 21.0151 4.07386 20.9546 4.47722 20.9546H5.42512V20.7731C5.42512 20.5109 5.34444 20.3294 5.20327 20.1882C5.06209 20.0471 4.86041 19.9866 4.57806 19.9866C4.39654 19.9866 4.21503 20.0269 4.03352 20.0874C3.85201 20.1479 3.71083 20.2286 3.58982 20.3496L3.42848 20.0269C3.56965 19.9059 3.75117 19.805 3.97302 19.7244C4.1747 19.6639 4.39654 19.6235 4.63856 19.6235C5.00159 19.6437 5.30411 19.7244 5.50579 19.9261Z" fill="#010101"/>
</g>
</g>
<g id="Clip path group_3">
<mask id="mask2_398_9641" style="mask-type:luminance" maskUnits="userSpaceOnUse" x="-19" y="-88" width="141" height="200">
<g id="SVGID_2__3">
<path id="Vector_5" d="M121.573 -87.0251H-18.4941V111.066H121.573V-87.0251Z" fill="white"/>
</g>
</mask>
<g mask="url(#mask2_398_9641)">
<path id="Vector_6" fill-rule="evenodd" clip-rule="evenodd" d="M6.89746 19.6639H7.28065V20.9749H9.15628V19.6639H9.55965V22.6286H9.15628V21.3177H7.28065V22.6286H6.89746V19.6639Z" fill="#010101"/>
</g>
</g>
<g id="Clip path group_4">
<mask id="mask3_398_9641" style="mask-type:luminance" maskUnits="userSpaceOnUse" x="-19" y="-88" width="141" height="200">
<g id="SVGID_2__4">
<path id="Vector_7" d="M121.573 -87.0251H-18.4941V111.066H121.573V-87.0251Z" fill="white"/>
</g>
</mask>
<g mask="url(#mask3_398_9641)">
<path id="Vector_8" fill-rule="evenodd" clip-rule="evenodd" d="M13.7747 22.2656V23.3547H13.3915V22.6286H10.689V19.6639H11.0923V22.2656H12.8873V19.6639H13.2906V22.2656H13.7747Z" fill="#010101"/>
</g>
</g>
<g id="Clip path group_5">
<mask id="mask4_398_9641" style="mask-type:luminance" maskUnits="userSpaceOnUse" x="-19" y="-88" width="141" height="200">
<g id="SVGID_2__5">
<path id="Vector_9" d="M121.573 -87.0251H-18.4941V111.066H121.573V-87.0251Z" fill="white"/>
</g>
</mask>
<g mask="url(#mask4_398_9641)">
<path id="Vector_10" fill-rule="evenodd" clip-rule="evenodd" d="M14.9848 20.2488C14.7832 20.4303 14.6823 20.6723 14.6622 20.9547H16.7596C16.7395 20.6521 16.6185 20.4303 16.4369 20.2488C16.2353 20.0673 15.9932 19.9664 15.7109 19.9664C15.4084 19.9866 15.1664 20.0673 14.9848 20.2488ZM17.1227 21.2572H14.642C14.6622 21.5597 14.7832 21.8219 15.005 22.0034C15.2269 22.1849 15.489 22.2857 15.8117 22.2857C15.9932 22.2857 16.1546 22.2454 16.3159 22.1849C16.4773 22.1244 16.5983 22.0236 16.7193 21.9026L16.9411 22.1647C16.8 22.3261 16.6386 22.4471 16.4571 22.5278C16.2554 22.6084 16.0336 22.6488 15.8117 22.6488C15.5092 22.6488 15.247 22.5883 15.005 22.4471C14.763 22.3261 14.5815 22.1446 14.4605 21.9026C14.3193 21.6807 14.2588 21.4185 14.2588 21.116C14.2588 20.8336 14.3193 20.5715 14.4403 20.3294C14.5613 20.1076 14.7428 19.9261 14.9647 19.7849C15.1865 19.6639 15.4285 19.6034 15.7109 19.6034C15.9932 19.6034 16.2353 19.6639 16.4571 19.7849C16.679 19.9059 16.8403 20.0874 16.9613 20.3093C17.0823 20.5311 17.1428 20.7933 17.1428 21.0958L17.1227 21.2572Z" fill="#010101"/>
</g>
</g>
<g id="Clip path group_6">
<mask id="mask5_398_9641" style="mask-type:luminance" maskUnits="userSpaceOnUse" x="-19" y="-88" width="141" height="200">
<g id="SVGID_2__6">
<path id="Vector_11" d="M121.573 -87.0251H-18.4941V111.066H121.573V-87.0251Z" fill="white"/>
</g>
</mask>
<g mask="url(#mask5_398_9641)">
<path id="Vector_12" fill-rule="evenodd" clip-rule="evenodd" d="M20.3695 19.6639V22.6286H19.9661V20.0068H18.5544L18.514 20.7328C18.4939 21.3581 18.4132 21.8219 18.2922 22.1446C18.1712 22.4673 17.9695 22.6488 17.6871 22.6488C17.6065 22.6488 17.5056 22.6286 17.4048 22.6085L17.425 22.2656C17.4855 22.2858 17.546 22.2858 17.5661 22.2858C17.7275 22.2858 17.8283 22.2051 17.909 22.0639C17.9897 21.9228 18.0502 21.7413 18.0703 21.5396C18.0905 21.3379 18.1107 21.0555 18.1308 20.7127L18.1913 19.6639H20.3695Z" fill="#010101"/>
</g>
</g>
<g id="Clip path group_7">
<mask id="mask6_398_9641" style="mask-type:luminance" maskUnits="userSpaceOnUse" x="-19" y="-88" width="141" height="200">
<g id="SVGID_2__7">
<path id="Vector_13" d="M121.573 -87.0251H-18.4941V111.066H121.573V-87.0251Z" fill="white"/>
</g>
</mask>
<g mask="url(#mask6_398_9641)">
<path id="Vector_14" fill-rule="evenodd" clip-rule="evenodd" d="M22.5278 21.3379H23.4152V20.0068H22.5479C21.9631 20.0068 21.6807 20.2286 21.6807 20.6723C21.6807 21.116 21.9631 21.3379 22.5278 21.3379ZM23.7984 19.6639V22.6286H23.4353V21.6404H22.5076H22.3866L21.7009 22.6286H21.2773L22.0236 21.6001C21.8017 21.5396 21.6202 21.4186 21.4992 21.2774C21.3782 21.116 21.3177 20.9345 21.3177 20.6925C21.3177 20.3698 21.4387 20.1076 21.6605 19.9463C21.8824 19.7648 22.1849 19.6841 22.5883 19.6841H23.7984V19.6639Z" fill="#010101"/>
</g>
</g>
<g id="Clip path group_8">
<mask id="mask7_398_9641" style="mask-type:luminance" maskUnits="userSpaceOnUse" x="-19" y="-88" width="141" height="200">
<g id="SVGID_2__8">
<path id="Vector_15" d="M121.573 -87.0251H-18.4941V111.066H121.573V-87.0251Z" fill="white"/>
</g>
</mask>
<g mask="url(#mask7_398_9641)">
<path id="Vector_16" fill-rule="evenodd" clip-rule="evenodd" d="M26.985 22.1446C27.1464 22.0438 27.2875 21.9228 27.3884 21.7413C27.4892 21.5598 27.5296 21.3581 27.5296 21.1362C27.5296 20.9144 27.4892 20.7127 27.3884 20.5312C27.2875 20.3497 27.1665 20.2287 26.985 20.1278C26.8237 20.027 26.622 19.9867 26.4203 19.9867C26.2186 19.9867 26.017 20.027 25.8556 20.1278C25.6943 20.2287 25.5531 20.3698 25.4523 20.5312C25.3514 20.7127 25.3111 20.9144 25.3111 21.1362C25.3111 21.3581 25.3514 21.5598 25.4523 21.7413C25.5531 21.9228 25.6741 22.0438 25.8556 22.1446C26.017 22.2455 26.2186 22.2858 26.4203 22.2858C26.622 22.2858 26.8237 22.2455 26.985 22.1446ZM27.2069 19.8253C27.4287 19.9463 27.6102 20.1278 27.7312 20.3497C27.8523 20.5715 27.9128 20.8337 27.9128 21.1362C27.9128 21.4388 27.8523 21.7009 27.7312 21.9228C27.6102 22.1446 27.4287 22.3262 27.2069 22.4472C26.985 22.5682 26.7228 22.6287 26.4405 22.6287C26.1985 22.6287 25.9766 22.5883 25.7951 22.4875C25.5934 22.3867 25.4523 22.2455 25.3111 22.0438V23.6976H24.9077V19.664H25.2909V20.2488C25.4119 20.0472 25.5733 19.906 25.7749 19.8051C25.9766 19.7043 26.1985 19.6438 26.4405 19.6438C26.7228 19.6438 26.985 19.7043 27.2069 19.8253Z" fill="#010101"/>
</g>
</g>
<g id="Clip path group_9">
<mask id="mask8_398_9641" style="mask-type:luminance" maskUnits="userSpaceOnUse" x="-19" y="-88" width="141" height="200">
<g id="SVGID_2__9">
<path id="Vector_17" d="M121.573 -87.0251H-18.4941V111.066H121.573V-87.0251Z" fill="white"/>
</g>
</mask>
<g mask="url(#mask8_398_9641)">
<path id="Vector_18" fill-rule="evenodd" clip-rule="evenodd" d="M28.7798 19.6639H29.1831V22.0034L31.1596 19.6639H31.5226V22.6286H31.1193V20.269L29.1428 22.6286H28.7798V19.6639Z" fill="#010101"/>
</g>
</g>
<g id="Clip path group_10">
<mask id="mask9_398_9641" style="mask-type:luminance" maskUnits="userSpaceOnUse" x="-19" y="-88" width="141" height="200">
<g id="SVGID_2__10">
<path id="Vector_19" d="M121.573 -87.0251H-18.4941V111.066H121.573V-87.0251Z" fill="white"/>
</g>
</mask>
<g mask="url(#mask9_398_9641)">
<path id="Vector_20" fill-rule="evenodd" clip-rule="evenodd" d="M33.6807 21.3379H34.5681V20.0068H33.7009C33.116 20.0068 32.8337 20.2286 32.8337 20.6723C32.8337 21.116 33.116 21.3379 33.6807 21.3379ZM34.9312 19.6639V22.6286H34.5681V21.6404H33.6404H33.5194L32.8337 22.6286H32.4102L33.1564 21.6001C32.9345 21.5396 32.753 21.4186 32.632 21.2774C32.511 21.116 32.4505 20.9345 32.4505 20.6925C32.4505 20.3698 32.5715 20.1076 32.7934 19.9463C33.0152 19.7648 33.3177 19.6841 33.7211 19.6841H34.9312V19.6639Z" fill="#010101"/>
</g>
</g>
<g id="Clip path group_11">
<mask id="mask10_398_9641" style="mask-type:luminance" maskUnits="userSpaceOnUse" x="-19" y="-88" width="141" height="200">
<g id="SVGID_2__11">
<path id="Vector_21" d="M121.573 -87.0251H-18.4941V111.066H121.573V-87.0251Z" fill="white"/>
</g>
</mask>
<g mask="url(#mask10_398_9641)">
<path id="Vector_22" fill-rule="evenodd" clip-rule="evenodd" d="M38.0166 21.7009C37.9561 21.9631 37.8754 22.1648 37.7342 22.2656H39.5897V20.0068H38.1577L38.1174 20.6724C38.0972 21.0959 38.0569 21.4388 38.0166 21.7009ZM40.4367 22.2656V23.3346H40.0535V22.6287H37.4115V23.3346H37.0283V22.2656H37.1897C37.3913 22.2455 37.5325 22.1043 37.593 21.8219C37.6737 21.5396 37.714 21.1362 37.7342 20.632L37.7745 19.6438H39.9527V22.2656H40.4367Z" fill="#010101"/>
</g>
</g>
<g id="Clip path group_12">
<mask id="mask11_398_9641" style="mask-type:luminance" maskUnits="userSpaceOnUse" x="-19" y="-88" width="141" height="200">
<g id="SVGID_2__12">
<path id="Vector_23" d="M121.573 -87.0251H-18.4941V111.066H121.573V-87.0251Z" fill="white"/>
</g>
</mask>
<g mask="url(#mask11_398_9641)">
<path id="Vector_24" fill-rule="evenodd" clip-rule="evenodd" d="M43.6439 19.6639V22.6286H43.2405V20.0068H41.8288L41.7884 20.7328C41.7683 21.3581 41.6876 21.8219 41.5666 22.1446C41.4456 22.4673 41.2439 22.6488 40.9616 22.6488C40.8809 22.6488 40.78 22.6286 40.6792 22.6085L40.6994 22.2656C40.7599 22.2858 40.8204 22.2858 40.8405 22.2858C41.0019 22.2858 41.1027 22.2051 41.1834 22.0639C41.2641 21.9228 41.3246 21.7413 41.3447 21.5396C41.3649 21.3379 41.3851 21.0555 41.4053 20.7127L41.4658 19.6639H43.6439Z" fill="#010101"/>
</g>
</g>
<g id="Clip path group_13">
<mask id="mask12_398_9641" style="mask-type:luminance" maskUnits="userSpaceOnUse" x="-19" y="-88" width="141" height="200">
<g id="SVGID_2__13">
<path id="Vector_25" d="M121.573 -87.0251H-18.4941V111.066H121.573V-87.0251Z" fill="white"/>
</g>
</mask>
<g mask="url(#mask12_398_9641)">
<path id="Vector_26" fill-rule="evenodd" clip-rule="evenodd" d="M45.7817 21.3379H46.6691V20.0068H45.8018C45.217 20.0068 44.9346 20.2286 44.9346 20.6723C44.9548 21.116 45.217 21.3379 45.7817 21.3379ZM47.0523 19.6639V22.6286H46.6892V21.6404H45.7615H45.6405L44.9548 22.6286H44.5312L45.2775 21.6001C45.0556 21.5396 44.8741 21.4186 44.7531 21.2774C44.6321 21.116 44.5716 20.9345 44.5716 20.6925C44.5716 20.3698 44.6926 20.1076 44.9144 19.9463C45.1363 19.7648 45.4388 19.6841 45.8422 19.6841H47.0523V19.6639Z" fill="#010101"/>
</g>
</g>
<g id="Clip path group_14">
<mask id="mask13_398_9641" style="mask-type:luminance" maskUnits="userSpaceOnUse" x="-19" y="-88" width="141" height="200">
<g id="SVGID_2__14">
<path id="Vector_27" d="M121.573 -87.0251H-18.4941V111.066H121.573V-87.0251Z" fill="white"/>
</g>
</mask>
<g mask="url(#mask13_398_9641)">
<path id="Vector_28" fill-rule="evenodd" clip-rule="evenodd" d="M52.316 19.6639V22.6286H51.9126V20.0068H50.0572V22.6286H49.6538V19.6639H52.316Z" fill="#010101"/>
</g>
</g>
<g id="Clip path group_15">
<mask id="mask14_398_9641" style="mask-type:luminance" maskUnits="userSpaceOnUse" x="-19" y="-88" width="141" height="200">
<g id="SVGID_2__15">
<path id="Vector_29" d="M121.573 -87.0251H-18.4941V111.066H121.573V-87.0251Z" fill="white"/>
</g>
</mask>
<g mask="url(#mask14_398_9641)">
<path id="Vector_30" fill-rule="evenodd" clip-rule="evenodd" d="M55.5228 22.1446C55.6841 22.0438 55.8253 21.9228 55.9261 21.7413C56.027 21.5598 56.0673 21.3581 56.0673 21.1362C56.0673 20.9144 56.027 20.7127 55.9261 20.5312C55.8253 20.3497 55.7043 20.2287 55.5228 20.1278C55.3614 20.027 55.1597 19.9867 54.9581 19.9867C54.7564 19.9867 54.5547 20.027 54.3934 20.1278C54.232 20.2287 54.0908 20.3698 53.99 20.5312C53.8892 20.7127 53.8488 20.9144 53.8488 21.1362C53.8488 21.3581 53.8892 21.5598 53.99 21.7413C54.0908 21.9228 54.2119 22.0438 54.3934 22.1446C54.5547 22.2455 54.7564 22.2858 54.9581 22.2858C55.1597 22.2858 55.3413 22.2455 55.5228 22.1446ZM55.7245 19.8253C55.9463 19.9463 56.1278 20.1278 56.2488 20.3497C56.3698 20.5715 56.4303 20.8337 56.4303 21.1362C56.4303 21.4388 56.3698 21.7009 56.2488 21.9228C56.1278 22.1446 55.9463 22.3262 55.7245 22.4472C55.5026 22.5682 55.2404 22.6287 54.9581 22.6287C54.7161 22.6287 54.4942 22.5883 54.3127 22.4875C54.111 22.3867 53.9698 22.2455 53.8287 22.0438V23.6976H53.4253V19.664H53.8085V20.2488C53.9295 20.0472 54.0908 19.906 54.2925 19.8051C54.4942 19.7043 54.7161 19.6438 54.9581 19.6438C55.2606 19.6438 55.5026 19.7043 55.7245 19.8253Z" fill="#010101"/>
</g>
</g>
<g id="Clip path group_16">
<mask id="mask15_398_9641" style="mask-type:luminance" maskUnits="userSpaceOnUse" x="-19" y="-88" width="141" height="200">
<g id="SVGID_2__16">
<path id="Vector_31" d="M121.573 -87.0251H-18.4941V111.066H121.573V-87.0251Z" fill="white"/>
</g>
</mask>
<g mask="url(#mask15_398_9641)">
<path id="Vector_32" fill-rule="evenodd" clip-rule="evenodd" d="M59.0924 22.1446C59.2538 22.0437 59.395 21.9227 59.4756 21.7412C59.5765 21.5597 59.6168 21.358 59.6168 21.1362C59.6168 20.9143 59.5765 20.7126 59.4756 20.5311C59.3748 20.3496 59.2538 20.2286 59.0924 20.1278C58.9311 20.0269 58.7294 19.9866 58.5277 19.9866C58.3261 19.9866 58.1244 20.0269 57.963 20.1278C57.8017 20.2286 57.6605 20.3496 57.5597 20.5311C57.4588 20.7126 57.4185 20.9143 57.4185 21.1362C57.4185 21.358 57.4588 21.5597 57.5597 21.7412C57.6605 21.9227 57.7815 22.0437 57.963 22.1446C58.1244 22.2454 58.3261 22.2857 58.5277 22.2857C58.7496 22.2857 58.9311 22.2454 59.0924 22.1446ZM57.7614 22.4471C57.5395 22.3261 57.358 22.1446 57.2168 21.9026C57.0756 21.6807 57.0151 21.4185 57.0151 21.116C57.0151 20.8336 57.0756 20.5715 57.2168 20.3294C57.358 20.1076 57.5193 19.9261 57.7614 19.7849C57.9832 19.6639 58.2454 19.6034 58.5277 19.6034C58.8101 19.6034 59.0723 19.6639 59.2941 19.7849C59.516 19.9059 59.6975 20.0874 59.8387 20.3294C59.9597 20.5513 60.0403 20.8135 60.0403 21.116C60.0403 21.3984 59.9798 21.6605 59.8387 21.9026C59.7177 22.1244 59.5361 22.3059 59.2941 22.4471C59.0723 22.5681 58.8101 22.6488 58.5277 22.6488C58.2454 22.6488 57.9832 22.5883 57.7614 22.4471Z" fill="#010101"/>
</g>
</g>
<g id="Clip path group_17">
<mask id="mask16_398_9641" style="mask-type:luminance" maskUnits="userSpaceOnUse" x="-19" y="-88" width="141" height="200">
<g id="SVGID_2__17">
<path id="Vector_33" d="M121.573 -87.0251H-18.4941V111.066H121.573V-87.0251Z" fill="white"/>
</g>
</mask>
<g mask="url(#mask16_398_9641)">
<path id="Vector_34" fill-rule="evenodd" clip-rule="evenodd" d="M61.3309 21.7009C61.2704 21.9631 61.1897 22.1648 61.0485 22.2656H62.904V20.0068H61.472L61.4317 20.6724C61.4317 21.0959 61.3914 21.4388 61.3309 21.7009ZM63.7712 22.2656V23.3346H63.388V22.6287H60.746V23.3346H60.3628V22.2656H60.5241C60.7258 22.2455 60.867 22.1043 60.9275 21.8219C61.0082 21.5396 61.0485 21.1362 61.0687 20.632L61.109 19.6438H63.2872V22.2656H63.7712Z" fill="#010101"/>
</g>
</g>
<g id="Clip path group_18">
<mask id="mask17_398_9641" style="mask-type:luminance" maskUnits="userSpaceOnUse" x="-19" y="-88" width="141" height="200">
<g id="SVGID_2__18">
<path id="Vector_35" d="M121.573 -87.0251H-18.4941V111.066H121.573V-87.0251Z" fill="white"/>
</g>
</mask>
<g mask="url(#mask17_398_9641)">
<path id="Vector_36" fill-rule="evenodd" clip-rule="evenodd" d="M67.0586 19.664L65.5864 22.9715C65.4653 23.2539 65.3242 23.4556 65.1628 23.5564C65.0015 23.6774 64.82 23.7379 64.5981 23.7379C64.4569 23.7379 64.3158 23.7177 64.1948 23.6774C64.0737 23.6371 63.9729 23.5564 63.8721 23.4757L64.0536 23.1732C64.1948 23.3144 64.3763 23.3951 64.5981 23.3951C64.7393 23.3951 64.8401 23.3547 64.941 23.2741C65.0418 23.1934 65.1225 23.0724 65.2032 22.8909L65.3242 22.6085L63.9931 19.6438H64.4166L65.546 22.185L66.6553 19.664H67.0586Z" fill="#010101"/>
</g>
</g>
<g id="Clip path group_19">
<mask id="mask18_398_9641" style="mask-type:luminance" maskUnits="userSpaceOnUse" x="-19" y="-88" width="141" height="200">
<g id="SVGID_2__19">
<path id="Vector_37" d="M121.573 -87.0251H-18.4941V111.066H121.573V-87.0251Z" fill="white"/>
</g>
</mask>
<g mask="url(#mask18_398_9641)">
<path id="Vector_38" fill-rule="evenodd" clip-rule="evenodd" d="M68.753 21.2976H68.0874V22.6286H67.6841V19.6639H68.0874V20.9547H68.7732L69.8017 19.6639H70.2454L69.0757 21.0959L70.3261 22.6286H69.8421L68.753 21.2976Z" fill="#010101"/>
</g>
</g>
<g id="Clip path group_20">
<mask id="mask19_398_9641" style="mask-type:luminance" maskUnits="userSpaceOnUse" x="-19" y="-88" width="141" height="200">
<g id="SVGID_2__20">
<path id="Vector_39" d="M121.573 -87.0251H-18.4941V111.066H121.573V-87.0251Z" fill="white"/>
</g>
</mask>
<g mask="url(#mask19_398_9641)">
<path id="Vector_40" fill-rule="evenodd" clip-rule="evenodd" d="M72.968 20.0068H71.8588V22.6286H71.4554V20.0068H70.3462V19.6639H72.968V20.0068Z" fill="#010101"/>
</g>
</g>
<g id="Clip path group_21">
<mask id="mask20_398_9641" style="mask-type:luminance" maskUnits="userSpaceOnUse" x="-19" y="-88" width="141" height="200">
<g id="SVGID_2__21">
<path id="Vector_41" d="M121.573 -87.0251H-18.4941V111.066H121.573V-87.0251Z" fill="white"/>
</g>
</mask>
<g mask="url(#mask20_398_9641)">
<path id="Vector_42" fill-rule="evenodd" clip-rule="evenodd" d="M73.5527 19.6639H73.9561V22.0034L75.9326 19.6639H76.2956V22.6286H75.8922V20.269L73.9158 22.6286H73.5527V19.6639Z" fill="#010101"/>
</g>
</g>
<g id="Clip path group_22">
<mask id="mask21_398_9641" style="mask-type:luminance" maskUnits="userSpaceOnUse" x="-19" y="-88" width="141" height="200">
<g id="SVGID_2__22">
<path id="Vector_43" d="M121.573 -87.0251H-18.4941V111.066H121.573V-87.0251Z" fill="white"/>
</g>
</mask>
<g mask="url(#mask21_398_9641)">
<path id="Vector_44" fill-rule="evenodd" clip-rule="evenodd" d="M79.3411 22.1849C79.4621 22.1043 79.5226 21.9631 79.5226 21.8018C79.5226 21.6202 79.4621 21.4992 79.3411 21.4186C79.2201 21.3379 79.0386 21.2976 78.7966 21.2976H77.8083V22.3261H78.7562C79.0184 22.306 79.1999 22.2656 79.3411 22.1849ZM77.8083 20.9749H78.6957C78.9176 20.9749 79.0991 20.9345 79.2201 20.8539C79.3411 20.7732 79.4016 20.632 79.4016 20.4707C79.4016 20.3093 79.3411 20.1883 79.2201 20.1076C79.0991 20.027 78.9176 19.9866 78.6957 19.9866H77.8083V20.9749ZM79.926 21.8219C79.926 22.0841 79.8251 22.2858 79.6436 22.427C79.4621 22.5681 79.1596 22.6286 78.7966 22.6286H77.4453V19.6639H78.7562C79.0991 19.6639 79.3613 19.7244 79.5428 19.8656C79.7243 20.0068 79.8251 20.1883 79.8251 20.4303C79.8251 20.5917 79.7848 20.7328 79.684 20.8539C79.6033 20.9749 79.4823 21.0555 79.3209 21.116C79.7243 21.1765 79.926 21.4186 79.926 21.8219Z" fill="#010101"/>
</g>
</g>
<g id="Clip path group_23">
<mask id="mask22_398_9641" style="mask-type:luminance" maskUnits="userSpaceOnUse" x="-19" y="-88" width="141" height="200">
<g id="SVGID_2__23">
<path id="Vector_45" d="M121.573 -87.0251H-18.4941V111.066H121.573V-87.0251Z" fill="white"/>
</g>
</mask>
<g mask="url(#mask22_398_9641)">
<path id="Vector_46" fill-rule="evenodd" clip-rule="evenodd" d="M80.8535 19.6639H81.2569V20.9749H83.1123V19.6639H83.5157V22.6286H83.1123V21.3177H81.2569V22.6286H80.8535V19.6639Z" fill="#010101"/>
</g>
</g>
<g id="Clip path group_24">
<mask id="mask23_398_9641" style="mask-type:luminance" maskUnits="userSpaceOnUse" x="-19" y="-88" width="141" height="200">
<g id="SVGID_2__24">
<path id="Vector_47" d="M121.573 -87.0251H-18.4941V111.066H121.573V-87.0251Z" fill="white"/>
</g>
</mask>
<g mask="url(#mask23_398_9641)">
<path id="Vector_48" fill-rule="evenodd" clip-rule="evenodd" d="M86.4401 22.1446C86.6015 22.0437 86.7426 21.9227 86.8233 21.7412C86.9241 21.5597 86.9645 21.358 86.9645 21.1362C86.9645 20.9143 86.9241 20.7126 86.8233 20.5311C86.7225 20.3496 86.6015 20.2286 86.4401 20.1278C86.2788 20.0269 86.0771 19.9866 85.8754 19.9866C85.6737 19.9866 85.472 20.0269 85.3107 20.1278C85.1494 20.2286 85.0082 20.3496 84.9073 20.5311C84.8065 20.7126 84.7662 20.9143 84.7662 21.1362C84.7662 21.358 84.8065 21.5597 84.9073 21.7412C85.0082 21.9227 85.1292 22.0437 85.3107 22.1446C85.472 22.2454 85.6737 22.2857 85.8754 22.2857C86.0771 22.2857 86.2788 22.2454 86.4401 22.1446ZM85.109 22.4471C84.8872 22.3261 84.7057 22.1446 84.5645 21.9026C84.4233 21.6807 84.3628 21.4185 84.3628 21.116C84.3628 20.8336 84.4233 20.5715 84.5645 20.3294C84.7057 20.1076 84.867 19.9261 85.109 19.7849C85.3309 19.6639 85.593 19.6034 85.8754 19.6034C86.1578 19.6034 86.4199 19.6639 86.6418 19.7849C86.8636 19.9059 87.0451 20.0874 87.1863 20.3294C87.3073 20.5513 87.388 20.8135 87.388 21.116C87.388 21.3984 87.3275 21.6605 87.1863 21.9026C87.0653 22.1244 86.8838 22.3059 86.6418 22.4471C86.4199 22.5681 86.1578 22.6488 85.8754 22.6488C85.593 22.6488 85.3309 22.5883 85.109 22.4471Z" fill="#010101"/>
</g>
</g>
<g id="Clip path group_25">
<mask id="mask24_398_9641" style="mask-type:luminance" maskUnits="userSpaceOnUse" x="-19" y="-88" width="141" height="200">
<g id="SVGID_2__25">
<path id="Vector_49" d="M121.573 -87.0251H-18.4941V111.066H121.573V-87.0251Z" fill="white"/>
</g>
</mask>
<g mask="url(#mask24_398_9641)">
<path id="Vector_50" fill-rule="evenodd" clip-rule="evenodd" d="M88.6788 22.4471C88.457 22.3261 88.2755 22.1446 88.1343 21.9026C87.9931 21.6807 87.9326 21.4185 87.9326 21.116C87.9326 20.8336 87.9931 20.5715 88.1343 20.3294C88.2755 20.1076 88.457 19.9261 88.6788 19.7849C88.9007 19.6639 89.1629 19.6034 89.4654 19.6034C89.7276 19.6034 89.9494 19.6437 90.1511 19.7446C90.3528 19.8454 90.5141 19.9866 90.6351 20.1883L90.3326 20.3899C90.2318 20.2488 90.1108 20.1278 89.9696 20.0673C89.8284 19.9866 89.6469 19.9664 89.4856 19.9664C89.2637 19.9664 89.0822 20.0068 88.9007 20.1076C88.7393 20.2084 88.5982 20.3294 88.4973 20.511C88.3965 20.6925 88.3561 20.8941 88.3561 21.116C88.3561 21.3378 88.3965 21.5395 88.4973 21.721C88.5982 21.9026 88.7192 22.0236 88.9007 22.1244C89.062 22.2252 89.2637 22.2656 89.4856 22.2656C89.6671 22.2656 89.8284 22.2252 89.9696 22.1647C90.1108 22.0841 90.2519 21.9832 90.3326 21.8421L90.6351 22.0437C90.5141 22.2252 90.3528 22.3866 90.1511 22.4874C89.9494 22.5883 89.7276 22.6286 89.4654 22.6286C89.183 22.6488 88.9209 22.5883 88.6788 22.4471Z" fill="#010101"/>
</g>
</g>
<g id="Clip path group_26">
<mask id="mask25_398_9641" style="mask-type:luminance" maskUnits="userSpaceOnUse" x="-19" y="-88" width="141" height="200">
<g id="SVGID_2__26">
<path id="Vector_51" d="M121.573 -87.0251H-18.4941V111.066H121.573V-87.0251Z" fill="white"/>
</g>
</mask>
<g mask="url(#mask25_398_9641)">
<path id="Vector_52" fill-rule="evenodd" clip-rule="evenodd" d="M93.4384 20.0068H92.309V22.6286H91.9056V20.0068H90.7964V19.6639H93.4384V20.0068Z" fill="#010101"/>
</g>
</g>
<g id="Clip path group_27">
<mask id="mask26_398_9641" style="mask-type:luminance" maskUnits="userSpaceOnUse" x="-19" y="-88" width="141" height="200">
<g id="SVGID_2__27">
<path id="Vector_53" d="M121.573 -87.0251H-18.4941V111.066H121.573V-87.0251Z" fill="white"/>
</g>
</mask>
<g mask="url(#mask26_398_9641)">
<path id="Vector_54" fill-rule="evenodd" clip-rule="evenodd" d="M94.0034 19.6639H94.4068V22.0034L96.3832 19.6639H96.7463V22.6286H96.3429V20.269L94.3664 22.6286H94.0034V19.6639Z" fill="#010101"/>
</g>
</g>
<g id="Clip path group_28">
<mask id="mask27_398_9641" style="mask-type:luminance" maskUnits="userSpaceOnUse" x="-19" y="-88" width="141" height="200">
<g id="SVGID_2__28">
<path id="Vector_55" d="M121.573 -87.0251H-18.4941V111.066H121.573V-87.0251Z" fill="white"/>
</g>
</mask>
<g mask="url(#mask27_398_9641)">
<path id="Vector_56" fill-rule="evenodd" clip-rule="evenodd" d="M1.23014 4.90088C1.71418 4.90088 2.09737 5.28407 2.09737 5.76811V6.43365C2.4604 5.90928 2.94443 5.52609 3.58981 5.28407C4.03351 5.12273 4.51754 5.00172 5.06208 4.94122C5.48561 4.90088 5.84863 5.22357 5.84863 5.62693C5.84863 5.98995 5.56628 6.29248 5.20325 6.33281C4.55788 6.39332 4.01334 6.53449 3.50914 6.75634C2.86376 7.05886 2.39989 7.52273 2.15788 8.14794V12.8068C2.15788 13.311 1.75451 13.6942 1.27048 13.6942C0.766279 13.6942 0.383085 13.2908 0.383085 12.8068V5.76811C0.362917 5.28407 0.74611 4.90088 1.23014 4.90088Z" fill="#010101"/>
</g>
</g>
<g id="Clip path group_29">
<mask id="mask28_398_9641" style="mask-type:luminance" maskUnits="userSpaceOnUse" x="-19" y="-88" width="141" height="200">
<g id="SVGID_2__29">
<path id="Vector_57" d="M121.573 -87.0251H-18.4941V111.066H121.573V-87.0251Z" fill="white"/>
</g>
</mask>
<g mask="url(#mask28_398_9641)">
<path id="Vector_58" fill-rule="evenodd" clip-rule="evenodd" d="M15.8321 8.61178C15.8119 7.80506 15.5498 7.17985 15.0456 6.73615C14.5414 6.29245 13.8355 6.0706 12.9077 6.0706C12.0002 6.0706 11.3145 6.29245 10.8103 6.75632C10.3061 7.22018 10.0439 7.82523 10.0237 8.59161L15.8321 8.61178ZM9.66068 12.5042C8.77329 11.7177 8.32959 10.6084 8.32959 9.17649C8.32959 7.78489 8.73295 6.67565 9.51951 5.86892C10.3262 5.0622 11.4556 4.63867 12.9279 4.63867C13.9161 4.63867 14.743 4.82018 15.4287 5.20338C16.1145 5.5664 16.6388 6.09077 16.9817 6.75632C17.3245 7.42187 17.5061 8.16808 17.5061 8.99497C17.5061 9.47901 17.1027 9.88237 16.6187 9.88237H10.0237C10.0842 10.6891 10.4271 11.2941 11.0523 11.6773C11.6775 12.0807 12.5245 12.2622 13.5733 12.2622C14.1178 12.2622 14.6624 12.2219 15.2271 12.121C15.4489 12.0807 15.6506 12.0404 15.8523 11.9798C16.2758 11.879 16.6993 12.2017 16.6993 12.6454C16.6993 12.9479 16.4977 13.2303 16.1951 13.3109C15.9128 13.3916 15.5699 13.4521 15.2069 13.5126C14.5817 13.6135 13.9766 13.6538 13.3716 13.6538C11.7985 13.674 10.5682 13.2908 9.66068 12.5042Z" fill="#010101"/>
</g>
</g>
<g id="Clip path group_30">
<mask id="mask29_398_9641" style="mask-type:luminance" maskUnits="userSpaceOnUse" x="-19" y="-88" width="141" height="200">
<g id="SVGID_2__30">
<path id="Vector_59" d="M121.573 -87.0251H-18.4941V111.066H121.573V-87.0251Z" fill="white"/>
</g>
</mask>
<g mask="url(#mask29_398_9641)">
<path id="Vector_60" fill-rule="evenodd" clip-rule="evenodd" d="M22.0839 4.90088C22.5477 4.90088 22.9309 5.28408 22.9309 5.74794V6.11097C23.3343 5.60677 23.778 5.24374 24.3024 5.00172C24.8066 4.75971 25.3309 4.6387 25.8755 4.6387C26.5612 4.6387 27.1057 4.75971 27.5091 4.98156C27.9124 5.2034 28.215 5.56643 28.3965 6.0303C28.7797 5.56643 29.2435 5.22357 29.7881 4.98156C30.3326 4.73954 30.8973 4.61853 31.4419 4.61853C32.4906 4.61853 33.2368 4.88072 33.7007 5.40508C34.1645 5.92945 34.3864 6.71601 34.3864 7.74458V12.8269C34.3864 13.311 34.0032 13.6942 33.5192 13.6942C33.0351 13.6942 32.6519 13.311 32.6519 12.8269V7.9866C32.6519 7.28071 32.5309 6.79668 32.2687 6.51433C32.0066 6.23198 31.5629 6.07063 30.9377 6.07063C30.0301 6.07063 29.304 6.45382 28.7393 7.24038C28.7595 7.42189 28.7797 7.70424 28.7797 8.10761V12.8269C28.7797 13.311 28.3965 13.6942 27.9124 13.6942C27.4284 13.6942 27.0452 13.311 27.0452 12.8269V7.96643C27.0452 7.26055 26.9242 6.77651 26.6822 6.49416C26.4402 6.21181 26.0166 6.05046 25.4116 6.05046C24.504 6.05046 23.7175 6.55466 22.9914 7.58324V12.8269C22.9914 13.311 22.6082 13.6942 22.1242 13.6942H22.104C21.62 13.6942 21.2368 13.311 21.2368 12.8269V5.74794C21.2368 5.28408 21.62 4.90088 22.0839 4.90088Z" fill="#010101"/>
</g>
</g>
<g id="Clip path group_31">
<mask id="mask30_398_9641" style="mask-type:luminance" maskUnits="userSpaceOnUse" x="-19" y="-88" width="141" height="200">
<g id="SVGID_2__31">
<path id="Vector_61" d="M121.573 -87.0251H-18.4941V111.066H121.573V-87.0251Z" fill="white"/>
</g>
</mask>
<g mask="url(#mask30_398_9641)">
<path id="Vector_62" fill-rule="evenodd" clip-rule="evenodd" d="M43.1598 11.9799C43.6236 11.758 43.9665 11.4353 44.1883 11.032V9.8824C43.422 9.37819 42.5547 9.13618 41.627 9.13618C40.9413 9.13618 40.4371 9.27735 40.0942 9.53954C39.7514 9.80172 39.59 10.2051 39.59 10.7496C39.59 11.7984 40.2757 12.3026 41.627 12.3026C42.1715 12.3227 42.6959 12.2017 43.1598 11.9799ZM38.7026 12.8874C38.0774 12.3631 37.7749 11.6572 37.7749 10.7496C37.7749 9.80172 38.0774 9.07567 38.6623 8.5513C39.2673 8.0471 40.1144 7.78492 41.2035 7.78492C42.3732 7.78492 43.3615 8.02693 44.1883 8.4908V8.0471C44.1883 7.38156 43.9867 6.87735 43.5833 6.55466C43.1799 6.23198 42.5346 6.07063 41.6673 6.07063C41.143 6.07063 40.6388 6.11097 40.1547 6.21181C39.9934 6.25214 39.8522 6.27231 39.711 6.31265C39.2673 6.43366 38.8438 6.0908 38.8438 5.6471C38.8438 5.34458 39.0455 5.0824 39.3278 4.98156C39.59 4.90088 39.8925 4.82021 40.2354 4.75971C40.8001 4.65887 41.3446 4.61853 41.8892 4.61853C43.301 4.61853 44.3295 4.92105 45.0152 5.54626C45.701 6.17147 46.0438 7.01853 46.0438 8.12777V12.8471C46.0438 13.311 45.6606 13.6942 45.1968 13.6942C44.7329 13.6942 44.3497 13.311 44.3497 12.8471V12.4437C43.9867 12.8471 43.543 13.1496 43.0388 13.3513C42.5346 13.553 41.9295 13.6538 41.2035 13.6538C40.1346 13.674 39.3077 13.4118 38.7026 12.8874Z" fill="#010101"/>
</g>
</g>
<g id="Clip path group_32">
<mask id="mask31_398_9641" style="mask-type:luminance" maskUnits="userSpaceOnUse" x="-19" y="-88" width="141" height="200">
<g id="SVGID_2__32">
<path id="Vector_63" d="M121.573 -87.0251H-18.4941V111.066H121.573V-87.0251Z" fill="white"/>
</g>
</mask>
<g mask="url(#mask31_398_9641)">
<path id="Vector_64" fill-rule="evenodd" clip-rule="evenodd" d="M50.8438 4.90088C51.3278 4.90088 51.711 5.28407 51.711 5.76811V6.43365C52.074 5.90928 52.5581 5.52609 53.2035 5.28407C53.6471 5.12273 54.1312 5.00172 54.6757 4.94122C55.0993 4.90088 55.4623 5.22357 55.4623 5.62693C55.4623 5.98995 55.1799 6.29248 54.8169 6.33281C54.1715 6.39332 53.627 6.53449 53.1228 6.75634C52.4774 7.05886 52.0135 7.52273 51.7715 8.14794V12.9479C51.7715 13.3715 51.4287 13.7143 51.0051 13.7143H50.7429C50.3194 13.7143 49.9766 13.3715 49.9766 12.9479V5.76811C49.9766 5.28407 50.3799 4.90088 50.8438 4.90088Z" fill="#010101"/>
</g>
</g>
<g id="Clip path group_33">
<mask id="mask32_398_9641" style="mask-type:luminance" maskUnits="userSpaceOnUse" x="-19" y="-88" width="141" height="200">
<g id="SVGID_2__33">
<path id="Vector_65" d="M121.573 -87.0251H-18.4941V111.066H121.573V-87.0251Z" fill="white"/>
</g>
</mask>
<g mask="url(#mask32_398_9641)">
<path id="Vector_66" fill-rule="evenodd" clip-rule="evenodd" d="M64.9411 13.674C64.7395 13.674 64.5378 13.5933 64.3966 13.4522L60.7664 9.84208C60.7059 9.78158 60.6454 9.70091 60.605 9.62023V12.9278C60.605 13.3513 60.2622 13.6942 59.8386 13.6942H59.5764C59.1529 13.6942 58.8101 13.3513 58.8101 12.9278V1.21015C58.8101 0.705947 59.2134 0.322754 59.6975 0.322754C60.1815 0.322754 60.5848 0.726115 60.5848 1.21015V8.53116C60.6252 8.47065 60.6655 8.41015 60.726 8.34965L63.7311 5.16309C63.8722 5.00175 64.0941 4.90091 64.3159 4.90091C64.8 4.90091 65.1025 5.2841 65.1025 5.70763C65.1025 5.88914 65.042 6.09082 64.8806 6.25217L62.1983 9.11603L65.4857 12.3833C65.9697 12.8471 65.647 13.674 64.9411 13.674Z" fill="#010101"/>
</g>
</g>
<g id="Clip path group_34">
<mask id="mask33_398_9641" style="mask-type:luminance" maskUnits="userSpaceOnUse" x="-19" y="-88" width="141" height="200">
<g id="SVGID_2__34">
<path id="Vector_67" d="M121.573 -87.0251H-18.4941V111.066H121.573V-87.0251Z" fill="white"/>
</g>
</mask>
<g mask="url(#mask33_398_9641)">
<path id="Vector_68" fill-rule="evenodd" clip-rule="evenodd" d="M70.4069 0.302612C70.9111 0.302612 71.2943 0.705974 71.2943 1.19001V12.8068C71.2943 13.311 70.891 13.6942 70.4069 13.6942C69.9027 13.6942 69.5195 13.2908 69.5195 12.8068V1.19001C69.5195 0.705974 69.9027 0.302612 70.4069 0.302612Z" fill="#010101"/>
</g>
</g>
<g id="Clip path group_35">
<mask id="mask34_398_9641" style="mask-type:luminance" maskUnits="userSpaceOnUse" x="-19" y="-88" width="141" height="200">
<g id="SVGID_2__35">
<path id="Vector_69" d="M121.573 -87.0251H-18.4941V111.066H121.573V-87.0251Z" fill="white"/>
</g>
</mask>
<g mask="url(#mask34_398_9641)">
<path id="Vector_70" fill-rule="evenodd" clip-rule="evenodd" d="M82.5279 8.61178C82.5077 7.80506 82.2456 7.17985 81.7414 6.73615C81.2372 6.29245 80.5313 6.0706 79.6035 6.0706C78.696 6.0706 78.0103 6.29245 77.5061 6.75632C77.0019 7.22018 76.7397 7.82523 76.7195 8.59161L82.5279 8.61178ZM76.3565 12.5042C75.4691 11.7177 75.0254 10.6084 75.0254 9.17649C75.0254 7.78489 75.4288 6.67565 76.2153 5.86892C77.022 5.0622 78.1514 4.63867 79.6237 4.63867C80.6119 4.63867 81.4388 4.82018 82.1246 5.20338C82.8103 5.5664 83.3346 6.09077 83.6775 6.75632C84.0203 7.42187 84.2019 8.16808 84.2019 8.99497C84.2019 9.47901 83.7985 9.88237 83.3145 9.88237H76.7195C76.78 10.6891 77.1229 11.2941 77.7481 11.6773C78.3733 12.0807 79.2203 12.2622 80.2691 12.2622C80.8136 12.2622 81.3582 12.2219 81.9229 12.121C82.1447 12.0807 82.3464 12.0404 82.5481 11.9798C82.9716 11.879 83.3951 12.2017 83.3951 12.6454C83.3951 12.9479 83.1935 13.2303 82.8909 13.3109C82.6086 13.3916 82.2657 13.4521 81.9027 13.5126C81.2775 13.6135 80.6724 13.6538 80.0674 13.6538C78.4943 13.674 77.264 13.2908 76.3565 12.5042Z" fill="#010101"/>
</g>
</g>
<g id="Clip path group_36">
<mask id="mask35_398_9641" style="mask-type:luminance" maskUnits="userSpaceOnUse" x="-19" y="-88" width="141" height="200">
<g id="SVGID_2__36">
<path id="Vector_71" d="M121.573 -87.0251H-18.4941V111.066H121.573V-87.0251Z" fill="white"/>
</g>
</mask>
<g mask="url(#mask35_398_9641)">
<path id="Vector_72" fill-rule="evenodd" clip-rule="evenodd" d="M95.0722 8.61178C95.052 7.80506 94.7898 7.17985 94.2856 6.73615C93.7814 6.29245 93.0756 6.0706 92.1478 6.0706C91.2403 6.0706 90.5546 6.29245 90.0504 6.75632C89.5461 7.22018 89.284 7.82523 89.2638 8.59161L95.0722 8.61178ZM88.9209 12.5042C88.0335 11.7177 87.5898 10.6084 87.5898 9.17649C87.5898 7.78489 87.9932 6.67565 88.7798 5.86892C89.5865 5.0622 90.7159 4.63867 92.1882 4.63867C93.1764 4.63867 94.0033 4.82018 94.689 5.20338C95.3747 5.5664 95.8991 6.09077 96.242 6.75632C96.5848 7.42187 96.7663 8.16808 96.7663 8.99497C96.7663 9.47901 96.363 9.88237 95.8789 9.88237H89.284C89.3445 10.6891 89.6873 11.2941 90.3125 11.6773C90.9377 12.0807 91.7848 12.2622 92.8335 12.2622C93.3781 12.2622 93.9226 12.2219 94.4873 12.121C94.7092 12.0807 94.9109 12.0404 95.1125 11.9798C95.5361 11.879 95.9596 12.2017 95.9596 12.6454C95.9596 12.9479 95.7579 13.2303 95.4554 13.3109C95.173 13.3916 94.8302 13.4521 94.4672 13.5126C93.8419 13.6135 93.2369 13.6538 92.6319 13.6538C91.0386 13.674 89.8083 13.2908 88.9209 12.5042Z" fill="#010101"/>
</g>
</g>
<g id="Clip path group_37">
<mask id="mask36_398_9641" style="mask-type:luminance" maskUnits="userSpaceOnUse" x="-19" y="-88" width="141" height="200">
<g id="SVGID_2__37">
<path id="Vector_73" d="M121.573 -87.0251H-18.4941V111.066H121.573V-87.0251Z" fill="white"/>
</g>
</mask>
<g mask="url(#mask36_398_9641)">
<path id="Vector_74" fill-rule="evenodd" clip-rule="evenodd" d="M102.534 4.37656C102.454 4.49757 102.312 4.57824 102.171 4.57824C102.091 4.57824 102.01 4.55807 101.929 4.49757L100.739 3.71102V5.00177C100.739 5.24379 100.538 5.44547 100.296 5.44547C100.054 5.44547 99.8519 5.24379 99.8519 5.00177V3.71102L98.662 4.49757C98.5813 4.53791 98.5006 4.57824 98.4199 4.57824C98.2788 4.57824 98.1376 4.51774 98.0569 4.37656C97.9157 4.17488 97.9762 3.89253 98.1779 3.77152L99.509 2.88412L98.1779 1.99673C97.9762 1.85555 97.9157 1.59337 98.0569 1.39169C98.1981 1.19001 98.4603 1.1295 98.662 1.27068L99.8519 2.05723V0.74631C99.8519 0.504293 100.054 0.302612 100.296 0.302612C100.538 0.302612 100.739 0.504293 100.739 0.74631V2.03707L101.929 1.25051C102.131 1.10933 102.413 1.16984 102.534 1.37152C102.675 1.5732 102.615 1.85555 102.413 1.97656L101.082 2.86396L102.413 3.75135C102.615 3.89253 102.655 4.17488 102.534 4.37656Z" fill="#010101"/>
</g>
</g>
</g>
</g>
</g>
</g>
</svg>
